# xmcd
#
# Track frame offsets:
#	150
#	16792
#	29612
#	43183
#	60347
#	73743
#	90561
#	107584
#	122473
#	138057
#	152281
#	172763
#	187845
#	203359
#	215138
#	227471
#	244531
#	259709
#
# Disc length: 3651 seconds
#
# Revision: 1
# Processed by: cddbd v1.5.2PL0 Copyright (c) Steve Scherf et al.
# Submitted via: audiograbber 1.82.02
#
DISCID=d60e4112
DTITLE=Various Artist - Country Radio - February 2018
DYEAR=2018
DGENRE=Country
TTITLE0=Vandoliers - Endless Summer
TTITLE1=Eric Ethridge - Makin' Me Crazy
TTITLE2=Dylan Schneider - No Problem
TTITLE3=Steve Moakler - Hearts Don't Break That Way
TTITLE4=Kevin Fowler - Movin' On
TTITLE5=Matt Rogers - Britches
TTITLE6=Kip Moore - Last Shot (PO Clean Edit)
TTITLE7=Josh Gracin - Nothin Like Us
TTITLE8=Lewis Brice - Messin' With My Mind
TTITLE9=Shayna Leigh - Candle
TTITLE10=Kid Rock - American Rock 'N' Roll
TTITLE11=Emma White - My Ex
TTITLE12=Jericho Woods - Better Now
TTITLE13=Hunter Hayes - More
TTITLE14=John King - I Still Pick Up
TTITLE15=Walker McGuire - Lost
TTITLE16=Kasey Tyndall - Bar That's Open
TTITLE17=Jillian Jacqueline - Reasons
EXTD=
EXTT0=
EXTT1=
EXTT2=
EXTT3=
EXTT4=
EXTT5=
EXTT6=
EXTT7=
EXTT8=
EXTT9=
EXTT10=
EXTT11=
EXTT12=
EXTT13=
EXTT14=
EXTT15=
EXTT16=
EXTT17=
PLAYORDER=
